# xmcd
#
# Track frame offsets:
#	151
#	10680
#	24961
#	40066
#	56973
#	71778
#	83585
#	93740
#	107643
#	120342
#
# Disc length: 1798 seconds
#
# Revision: 1
# Processed by: cddbd v1.5.2PL0 Copyright (c) Steve Scherf et al.
# Submitted via: audiograbber 1.83.01
#
DISCID=7607040a
DTITLE=Eddie Gosselin - I´ll Take That Chance Eddie Gosselin
DYEAR=1998
DGENRE=Country
TTITLE0=I´ll Take That Chance
TTITLE1=Can´t Help Falling In Love
TTITLE2=Doing My Time
TTITLE3=You Got Me
TTITLE4=Your Cheating Heart
TTITLE5=Ace In The Hole
TTITLE6=Nashville Women
TTITLE7=Statue Of A Fool
TTITLE8=Summertime Blues
TTITLE9=The Dance
EXTD=
EXTT0=
EXTT1=
EXTT2=
EXTT3=
EXTT4=
EXTT5=
EXTT6=
EXTT7=
EXTT8=
EXTT9=
PLAYORDER=
